:SAMPLES-PER-SECOND 30
:FULLY-SPECIFIED
:DEGREES
216
root  0.234355 21.9741 1.14562 -32.9811 83.3484 -6.22296
RightUpLeg  -55.0794 -8.95862 -3.60509
RightLeg  94.4151 19.803 -23.7051
RightFoot  -17.4837 0.331147 7.54015
RightToes  5.82077e-011 -3.18055e-015 -2.98177e-016
Spine  24.0172 -1.20887 11.1818
Spine1  12.6829 2.15978 -1.11371
HEad  -14.6434 1.44633 -2.56863
LeftShoulder1  -3.88251e-019 9.70628e-020 -3.87848e-018
LeftArm  -22.2064 52.7799 -73.7683
LeftForeArm  1.22423 -15.4994 -5.00043
LeftHand  -0.381469 -1.94052 6.54936
RightShoulder  8.17591 10.9784 37.7382
RightArm  13.6327 -36.8363 20.0283
RightForeArm  9.49234 17.171 -5.45687
RightHand  -1.24352 5.61833 -13.0464
LeftUpLeg  -48.9608 -7.8605 14.4409
LeftLeg  106.052 -13.039 -0.955956
LeftFoot  -30.5805 -1.99539 -12.384
LeftToes  7.79675e-011 9.80247e-012 -3.28897e-011
217
root  0.230261 21.9756 1.14171 -32.9003 83.3782 -6.08966
RightUpLeg  -55.0235 -8.98052 -3.6545
RightLeg  94.4041 19.8001 -23.7116
RightFoot  -17.4829 0.329391 7.53777
RightToes  5.82077e-011 -3.18055e-015 -2.98177e-016
Spine  24.0152 -1.19668 11.1386
Spine1  12.7299 2.14723 -1.04756
HEad  -14.5622 1.4263 -2.81913
LeftShoulder1  -3.88251e-019 9.70628e-020 -3.87848e-018
LeftArm  -21.7178 52.7372 -73.9551
LeftForeArm  -0.0575613 -16.375 -4.83416
LeftHand  -0.346925 -1.9359 5.97631
RightShoulder  8.12753 10.9642 37.535
RightArm  12.9461 -37.106 20.3407
RightForeArm  10.4874 16.9834 -5.37461
RightHand  -1.23698 5.85365 -12.7236
LeftUpLeg  -48.9186 -7.92555 14.3834
LeftLeg  106.031 -13.0606 -0.888481
LeftFoot  -30.562 -1.99157 -12.3738
LeftToes  7.79675e-011 9.80247e-012 -3.28897e-011
218
root  0.227847 21.9772 1.13313 -32.7334 83.3641 -5.8856
RightUpLeg  -55.0003 -8.98579 -3.69392
RightLeg  94.407 19.7938 -23.6811
RightFoot  -17.4669 0.329834 7.50773
RightToes  5.82077e-011 -3.18055e-015 -2.98177e-016
Spine  23.9662 -1.25718 11.2152
Spine1  12.81 2.15878 -1.26514
HEad  -14.4626 1.38148 -2.92438
LeftShoulder1  -3.88251e-019 9.70628e-020 -3.87848e-018
LeftArm  -20.7319 52.7655 -73.8538
LeftForeArm  -2.61657 -17.3744 -4.60039
LeftHand  -0.358044 -2.0762 6.04608
RightShoulder  8.11755 10.9606 37.4944
RightArm  11.9763 -37.2253 20.626
RightForeArm  12.2104 16.6405 -5.15485
RightHand  -1.24448 6.42551 -12.1962
LeftUpLeg  -48.8763 -7.94511 14.336
LeftLeg  106.027 -13.081 -0.823214
LeftFoot  -30.5594 -1.9925 -12.3804
LeftToes  7.79675e-011 9.80247e-012 -3.28897e-011
219
root  0.222106 21.9785 1.12466 -32.9353 83.3289 -6.01978
RightUpLeg  -54.9273 -8.98991 -3.69165
RightLeg  94.3973 19.7788 -23.6355
RightFoot  -17.4483 0.331256 7.47738
RightToes  5.82077e-011 -3.18055e-015 -2.98177e-016
Spine  23.8928 -1.37396 11.3674
Spine1  12.9793 2.16726 -1.60584
HEad  -14.4183 1.3503 -2.77551
LeftShoulder1  -3.88251e-019 9.70628e-020 -3.87848e-018
LeftArm  -19.8488 52.7404 -73.5841
LeftForeArm  -5.56687 -18.2325 -4.27012
LeftHand  -0.37931 -2.08599 6.38997
RightShoulder  8.17278 10.9738 37.7333
RightArm  11.8402 -37.13 20.6409
RightForeArm  13.1867 16.4337 -4.86195
RightHand  -1.25206 6.46812 -12.2306
LeftUpLeg  -48.8072 -7.94587 14.3452
LeftLeg  106.03 -13.0844 -0.81198
LeftFoot  -30.5502 -1.99178 -12.383
LeftToes  7.79675e-011 9.80247e-012 -3.28897e-011
220
root  0.213821 21.9791 1.12152 -33.4453 83.2966 -6.44817
RightUpLeg  -54.8244 -8.99445 -3.6457
RightLeg  94.3697 19.7641 -23.6217
RightFoot  -17.4347 0.330914 7.4754
RightToes  5.82077e-011 -3.18055e-015 -2.98177e-016
Spine  23.8021 -1.45197 11.4822
Spine1  13.2238 2.16507 -1.7778
HEad  -14.4629 1.33026 -2.56731
LeftShoulder1  -3.88251e-019 9.70628e-020 -3.87848e-018
LeftArm  -19.6107 52.5224 -73.3037
LeftForeArm  -7.29287 -18.6719 -3.96036
LeftHand  -0.365259 -1.95557 6.26411
RightShoulder  8.22625 10.9847 37.968
RightArm  12.269 -37.0993 20.5268
RightForeArm  13.1387 16.4578 -4.73004
RightHand  -1.25229 6.01841 -12.6947
LeftUpLeg  -48.7348 -7.94459 14.4051
LeftLeg  106.03 -13.0737 -0.846165
LeftFoot  -30.5321 -1.98703 -12.3657
LeftToes  7.79675e-011 9.80247e-012 -3.28897e-011
221
root  0.207143 21.9778 1.12216 -33.7845 83.2769 -6.74565
RightUpLeg  -54.7822 -9.00412 -3.60121
RightLeg  94.3564 19.7591 -23.6237
RightFoot  -17.4208 0.328811 7.48174
RightToes  5.82077e-011 -3.18055e-015 -2.98177e-016
Spine  23.6965 -1.46251 11.5422
Spine1  13.4525 2.17238 -1.79595
HEad  -14.5328 1.25269 -2.50371
LeftShoulder1  -3.88251e-019 9.70628e-020 -3.87848e-018
LeftArm  -19.7815 52.0809 -72.9293
LeftForeArm  -7.28884 -18.6166 -3.84704
LeftHand  -0.330357 -1.9998 5.65068
RightShoulder  8.22682 10.9811 37.979
RightArm  12.3714 -37.3399 20.5017
RightForeArm  12.9426 16.559 -4.88367
RightHand  -1.25583 5.85158 -12.9119
LeftUpLeg  -48.708 -7.94297 14.4534
LeftLeg  106.031 -13.0694 -0.860129
LeftFoot  -30.5182 -1.98079 -12.3359
LeftToes  7.79675e-011 9.80247e-012 -3.28897e-011
